<svg xmlns="http://www.w3.org/2000/svg" viewBox="0 0 200 200" width="200" height="200">
  <!-- Knockout: paper-color for dark backgrounds -->
  <g fill="#FDFAF3">
    <ellipse cx="75" cy="115" rx="28" ry="32"/>
    <circle cx="75" cy="78" r="22"/>
    <path d="M 60 65 L 54 48 L 68 60 Z"/>
    <path d="M 90 65 L 96 48 L 82 60 Z"/>
    <path d="M 55 120 Q 38 110, 36 90 Q 35 78, 42 72 Q 48 70, 50 78 Q 48 90, 52 100 Q 56 112, 60 118 Z"/>
    <ellipse cx="125" cy="115" rx="28" ry="32"/>
    <circle cx="125" cy="78" r="22"/>
    <path d="M 140 65 L 146 48 L 132 60 Z"/>
    <path d="M 110 65 L 104 48 L 118 60 Z"/>
    <path d="M 145 120 Q 162 110, 164 90 Q 165 78, 158 72 Q 152 70, 150 78 Q 152 90, 148 100 Q 144 112, 140 118 Z"/>
  </g>
  <!-- Heart negative space (dark bg shows through) -->
  <path d="M 100 95 C 95 88, 88 86, 85 92 C 82 98, 86 104, 92 108 L 100 116 L 108 108 C 114 104, 118 98, 115 92 C 112 86, 105 88, 100 95 Z" fill="#1A1611"/>
  <!-- Eyes -->
  <circle cx="66" cy="76" r="3" fill="#1A1611"/>
  <circle cx="134" cy="76" r="3" fill="#1A1611"/>
</svg>
